

In New York City, a husband and wife butt heads with the granddaughters of the elderly woman who lives in apartment the couple owns

Genre:Comedy | Drama
Language:English  http://www.imdb.com/title/tt0878835/
Source:DVD
 
http://www.starshare.ro/bitbucket/Please.Give.DvDRip.XviD.Ac3.Feel-Free.avi_thumbs_%5B2010.09.24_22.04.23%5D.jpg

General
Complete name :Please.Give.DvDRip.XviD.Ac3.Feel-Free
Format : AVI
Format/Info : Audio Video Interleave
File size : 1.22 GiB
Duration : 1h 26mn
Overall bit rate : 2 006 Kbps
Video #0
Muxing mode : Packed bitstream
Codec ID : XVID
Codec ID/Hint : XviD
Duration : 1h 26mn
Bit rate : 1 548 Kbps
Width : 688 pixels
Height : 288 pixels
Display aspect ratio : 2.35:1
Frame rate : 25.000 fps
Resolution : 24 bits
Colorimetry : 4:2:0
Scan type : Progressive
Bits/(Pixel*Frame) : 0.313
Stream size : 962 MiB (77%)
Writing library : XviD 1.2.1 (UTC 2008-12-04)
Audio #1
ID : 1
Format : AC-3
Format/Info : Audio Coding 3
Codec ID : 2000
Duration : 1h 26mn
Bit rate mode : Constant
Bit rate : 448 Kbps
Channel(s) : 6 channels
Channel positions : Front: L C R, Surround: L R, LFE
Sampling rate : 48.0 KHz
Stream size : 278 MiB (22%)
Alignment : Split accross interleaves
Interleave, duration : 40 ms (1.00 video frame)
Interleave, preload duration : 500 ms